<svg xmlns="http://www.w3.org/2000/svg" xmlns:xlink="http://www.w3.org/1999/xlink" width="500" zoomAndPan="magnify" viewBox="0 0 375 374.999991" height="500" preserveAspectRatio="xMidYMid meet" version="1.0"><defs><g/></defs><rect x="-37.5" width="450" fill="#ffffff" y="-37.499999" height="449.999989" fill-opacity="1"/><rect x="-37.5" width="450" fill="#ffffff" y="-37.499999" height="449.999989" fill-opacity="1"/><g fill="#000000" fill-opacity="1"><g transform="translate(6.461835, 97.626551)"><g><path d="M 141.5625 8.84375 C 138.769531 3.101562 138.164062 -2.46875 139.75 -7.875 C 141.34375 -13.28125 144.769531 -17.265625 150.03125 -19.828125 C 151.050781 -20.328125 152.519531 -21.300781 154.4375 -22.75 C 156.363281 -24.207031 157.878906 -25.207031 158.984375 -25.75 C 164.160156 -28.269531 169.390625 -28.390625 174.671875 -26.109375 C 179.960938 -23.828125 183.9375 -19.957031 186.59375 -14.5 C 193.351562 -0.644531 187.585938 10.742188 169.296875 19.671875 C 164.035156 22.234375 158.785156 22.476562 153.546875 20.40625 C 148.304688 18.332031 144.3125 14.476562 141.5625 8.84375 Z M 48.8125 56.828125 C 41.832031 42.492188 49.148438 30.054688 70.765625 19.515625 C 75.941406 16.984375 81.300781 16.945312 86.84375 19.40625 C 92.007812 21.800781 95.898438 25.679688 98.515625 31.046875 C 105.367188 45.085938 98.117188 57.3125 76.765625 67.71875 C 71.503906 70.28125 66.21875 70.515625 60.90625 68.421875 C 55.59375 66.328125 51.5625 62.460938 48.8125 56.828125 Z M 48.8125 56.828125 "/></g></g></g><g fill="#000000" fill-opacity="1"><g transform="translate(54.167046, 195.432852)"><g><path d="M 34.515625 86.953125 C 27.710938 73.003906 24.519531 59.0625 24.9375 45.125 C 25.59375 29.375 30.960938 16.347656 41.046875 6.046875 C 42.429688 4.691406 43.910156 3.628906 45.484375 2.859375 C 49.179688 1.054688 52.941406 0.96875 56.765625 2.59375 C 60.585938 4.21875 63.394531 6.875 65.1875 10.5625 C 67 14.257812 66.847656 18.28125 64.734375 22.625 L 58.28125 33.65625 C 55.375 39.207031 54.160156 45.347656 54.640625 52.078125 C 55.128906 58.816406 57.289062 66.113281 61.125 73.96875 C 66.039062 84.039062 73.488281 91.332031 83.46875 95.84375 C 94.03125 100.644531 104.117188 100.703125 113.734375 96.015625 C 127.691406 89.203125 136.328125 78.640625 139.640625 64.328125 C 142.429688 51.765625 140.957031 37.617188 135.21875 21.890625 C 131.238281 11.128906 132.894531 3.96875 140.1875 0.40625 C 145.644531 -2.25 151.765625 -0.257812 158.546875 6.375 L 182.875 35.515625 C 188.289062 40.765625 193.75 44.050781 199.25 45.375 C 204.75 46.695312 210.34375 46.03125 216.03125 43.375 C 224.25 39.582031 229.28125 33.238281 231.125 24.34375 C 233 15.070312 230.960938 4.34375 225.015625 -7.84375 C 221.953125 -14.125 217.453125 -19.476562 211.515625 -23.90625 L 194.046875 -34.78125 C 190.617188 -36.882812 188.457031 -38.859375 187.5625 -40.703125 C 185.75 -44.398438 185.609375 -48.25 187.140625 -52.25 C 188.679688 -56.257812 191.25 -59.144531 194.84375 -60.90625 C 202.144531 -64.46875 212.617188 -60.820312 226.265625 -49.96875 C 238.265625 -40.613281 246.203125 -31.960938 250.078125 -24.015625 C 259.765625 -4.160156 263.054688 13.734375 259.953125 29.671875 C 256.609375 46.734375 246.207031 59.519531 228.75 68.03125 C 207.039062 78.625 188.441406 76.832031 172.953125 62.65625 C 171.535156 61.40625 170.007812 59.921875 168.375 58.203125 C 169.84375 72.703125 167.5625 85.191406 161.53125 95.671875 C 155.5 106.160156 145.734375 114.695312 132.234375 121.28125 C 114.035156 130.15625 95.453125 131.269531 76.484375 124.625 C 57.523438 117.988281 43.535156 105.429688 34.515625 86.953125 Z M 34.515625 86.953125 "/></g></g></g></svg>